<svg width="186" height="40" viewBox="0 0 186 40" fill="none" xmlns="http://www.w3.org/2000/svg">
<g clip-path="url(#clip0_91_345)">
<path d="M122.23 28.5935V27.3276H112.283C112.309 28.4113 112.349 29.3455 112.398 30.1279H122.248C122.237 29.6701 122.23 29.1586 122.23 28.5935Z" fill="#F8F7F7"/>
<path d="M110.885 27.3299H100.896V29.5113C100.896 29.7285 100.892 29.934 100.885 30.1302H110.887V27.3299H110.885Z" fill="#F8F7F7"/>
<path d="M79.6126 27.3299H70.3579V30.1302H79.6126V27.3299Z" fill="#F8F7F7"/>
<path d="M97.6215 27.3299H87.6328V30.1302H97.6215V27.3299Z" fill="#F8F7F7"/>
<path d="M70.346 25.2607C70.353 25.2864 70.3577 25.3121 70.3577 25.3378V26.1599H79.6123V25.3378C79.6123 25.3097 79.617 25.284 79.624 25.256L80.2926 23.0069H69.7031L70.3483 25.256L70.346 25.2607Z" fill="#F8F7F7"/>
<path d="M33.4091 23.0116H23.4204V26.1622H33.4091V23.0116Z" fill="#F8F7F7"/>
<path d="M97.6215 23.0116H87.6328V26.1622H97.6215V23.0116Z" fill="#F8F7F7"/>
<path d="M65.0655 27.3299H43.1573L42.7856 30.1302H65.4816L65.0655 27.3299Z" fill="#F8F7F7"/>
<path d="M161.743 35.9666V38.9093C161.743 39.0658 161.869 39.1919 162.026 39.1919H171.448C171.605 39.1919 171.731 39.0658 171.731 38.9093V35.9666H161.743Z" fill="#F8F7F7"/>
<path d="M159.959 18.6933H149.97V22.1942H159.959V18.6933Z" fill="#F8F7F7"/>
<path d="M135.351 18.6933H125.362V22.1942H135.351V18.6933Z" fill="#F8F7F7"/>
<path d="M161.743 23.0116V26.1622H171.731V25.0785C171.731 24.7445 172.21 24.6862 172.29 25.0108L172.573 26.1622H182.159L181.206 23.0116H161.74H161.743Z" fill="#F8F7F7"/>
<path d="M146.838 28.5935V27.3276H136.891C136.917 28.4113 136.957 29.3455 137.006 30.1279H146.856C146.845 29.6701 146.838 29.1586 146.838 28.5935Z" fill="#F8F7F7"/>
<path d="M182.512 27.3299H172.86L173.548 30.1302H183.359L182.512 27.3299Z" fill="#F8F7F7"/>
<path d="M171.731 27.3299H161.743V30.1302H171.731V27.3299Z" fill="#F8F7F7"/>
<path d="M146.838 18.6933H136.849V22.1942H146.838V18.6933Z" fill="#F8F7F7"/>
<path d="M87.6328 22.1942H110.233C110.069 21.7668 109.878 21.3861 109.653 21.0568C108.959 20.0362 107.739 19.2631 105.99 18.7307C105.962 18.7213 105.936 18.7073 105.913 18.6933H87.6328V22.1942Z" fill="#F8F7F7"/>
<path d="M65.7085 31.6483H42.5847L42.2598 34.0982H52.3536L52.4892 32.5521C52.5009 32.405 52.6248 32.2929 52.7721 32.2929H55.8227C55.9699 32.2929 56.0938 32.4073 56.1055 32.5545L56.2247 34.0982H66.0708L65.7061 31.6483H65.7085Z" fill="#F8F7F7"/>
<path d="M161.743 22.1942H180.958L179.901 18.6933H161.743V22.1942Z" fill="#F8F7F7"/>
<path d="M125.243 31.6483C125.199 32.0687 125.145 32.3886 125.077 32.6012C124.888 33.2014 124.453 33.5027 123.773 33.5027C123.092 33.5027 122.686 33.2411 122.503 32.7203C122.428 32.5077 122.37 32.1481 122.326 31.6483H112.536C112.643 32.5007 112.872 33.3158 113.216 34.0982H134.378C134.715 33.3205 134.939 32.5054 135.054 31.6483H125.243Z" fill="#F8F7F7"/>
<path d="M149.851 31.6483C149.806 32.0687 149.753 32.3886 149.685 32.6012C149.496 33.2014 149.061 33.5027 148.381 33.5027C147.7 33.5027 147.294 33.2411 147.111 32.7203C147.036 32.5077 146.978 32.1481 146.934 31.6483H137.144C137.251 32.5007 137.48 33.3158 137.824 34.0982H158.986C159.323 33.3205 159.547 32.5054 159.662 31.6483H149.851Z" fill="#F8F7F7"/>
<path d="M149.97 27.3299V28.3108C149.97 28.9928 149.961 29.6 149.944 30.1302H159.802C159.854 29.3478 159.891 28.4136 159.917 27.3299H149.97Z" fill="#F8F7F7"/>
<path d="M100.693 31.6483C100.6 32.0056 100.473 32.2672 100.314 32.4283C99.9544 32.795 99.1596 33.0122 97.923 33.0799C97.7594 33.0893 97.6215 32.9608 97.6215 32.7973V31.6483H87.6328V34.0982H110.57C110.71 33.3882 110.803 32.5708 110.85 31.6483H100.693Z" fill="#F8F7F7"/>
<path d="M136.849 23.2825C136.849 24.3265 136.856 25.2841 136.87 26.1599H146.84V23.0093H136.851V23.2802L136.849 23.2825Z" fill="#F8F7F7"/>
<path d="M125.362 26.1622H135.332C135.346 25.2841 135.353 24.3265 135.353 23.2849V23.014H125.365V26.1645L125.362 26.1622Z" fill="#F8F7F7"/>
<path d="M112.241 23.2825C112.241 24.3265 112.248 25.2841 112.262 26.1599H122.232V23.0093H112.244V23.2802L112.241 23.2825Z" fill="#F8F7F7"/>
<path d="M100.896 25.931V26.1599H110.88C110.855 24.9478 110.726 23.8968 110.495 23.0093H100.431C100.74 23.4063 100.896 24.3802 100.896 25.9287V25.931Z" fill="#F8F7F7"/>
<path d="M33.4091 27.3299H23.4204V30.1302H33.4091V27.3299Z" fill="#F8F7F7"/>
<path d="M43.73 23.0116L43.3115 26.1622H64.8901L64.4203 23.0116H55.5443C55.6238 23.759 55.7033 24.4806 55.7851 25.1743C55.8038 25.3424 55.6729 25.4872 55.5046 25.4872H52.6901C52.5241 25.4872 52.3932 25.3471 52.4072 25.1836C52.461 24.5297 52.5264 23.8033 52.6059 23.0116H43.73Z" fill="#F8F7F7"/>
<path d="M149.97 23.0116V26.1622H159.94C159.954 25.284 159.961 24.3265 159.961 23.2849V23.0139H149.973L149.97 23.0116Z" fill="#F8F7F7"/>
<path d="M135.309 27.3299H125.362V28.3108C125.362 28.9928 125.353 29.6 125.336 30.1302H135.194C135.246 29.3478 135.283 28.4136 135.309 27.3299Z" fill="#F8F7F7"/>
<path d="M185.124 35.9666H174.983L175.724 38.977C175.754 39.1032 175.869 39.1919 176 39.1919H185.717C185.907 39.1919 186.045 39.0074 185.988 38.8276L185.124 35.9666Z" fill="#F8F7F7"/>
<path d="M33.4091 18.2262V1.08834C33.4091 0.931857 33.2828 0.80574 33.1262 0.80574H23.7033C23.5466 0.80574 23.4204 0.931857 23.4204 1.08834V18.2239H33.4091V18.2262Z" fill="#F8F7F7"/>
<path d="M20.9194 18.2262C21.3215 17.1378 21.5225 15.6688 21.5225 13.4898V10.6148C21.5225 8.21159 21.3916 7.37315 21.1298 6.22642C20.868 5.07969 20.3701 4.10346 19.6337 3.29771C18.8973 2.49197 17.7987 1.8754 16.3353 1.448C14.872 1.0206 12.7798 0.808075 10.0588 0.808075H0.282852C0.126232 0.808075 0 0.934192 0 1.09067V18.2262H20.9194ZM9.98867 6.49267C9.98867 6.33152 10.1219 6.2054 10.2832 6.21007C11.417 6.2381 12.172 6.43428 12.553 6.79861C12.9645 7.19331 13.1702 8.0481 13.1702 9.35832V12.5112C13.1702 13.9335 12.9925 14.8701 12.6372 15.3208C12.2819 15.7716 11.6437 15.9958 10.7274 15.9958C10.5918 15.9958 10.4375 15.9935 10.2668 15.9864C10.1149 15.9794 9.99334 15.8557 9.99334 15.7038V6.49267H9.98867Z" fill="#F8F7F7"/>
<path d="M0 35.9666V38.9093C0 39.0658 0.126232 39.1919 0.282852 39.1919H9.70581C9.86243 39.1919 9.98866 39.0658 9.98866 38.9093V35.9666H0Z" fill="#F8F7F7"/>
<path d="M105.911 18.2262C105.934 18.2098 105.96 18.1958 105.99 18.1865C107.496 17.7357 108.538 17.1472 109.118 16.4209C109.822 15.5357 110.175 13.9733 110.175 11.7288C110.175 8.41245 109.677 6.00689 108.681 4.51451C107.685 3.02212 106.376 2.03187 104.754 1.54142C103.131 1.05097 100.747 0.80574 97.6005 0.80574H87.9181C87.7615 0.80574 87.6353 0.931857 87.6353 1.08834V18.2239H105.913L105.911 18.2262ZM97.6216 7.66275C97.6216 7.50394 97.7548 7.37549 97.9161 7.38016C98.7834 7.40351 99.3771 7.47358 99.6997 7.58802C100.055 7.71413 100.345 8.01775 100.565 8.50119C100.787 8.98231 100.897 9.82542 100.897 11.0259C100.897 13.303 100.761 14.6809 100.492 15.1644C100.223 15.6478 99.5992 15.8884 98.6174 15.8884C98.4374 15.8884 98.2036 15.893 97.9161 15.9024C97.7572 15.907 97.6216 15.7786 97.6216 15.6198V7.66742V7.66275Z" fill="#F8F7F7"/>
<path d="M122.23 18.2262V10.6709C122.23 8.69504 122.368 7.50627 122.646 7.10223C122.922 6.69819 123.322 6.49734 123.845 6.49734C124.462 6.49734 124.869 6.74724 125.068 7.2447C125.264 7.74216 125.365 8.88422 125.365 10.6709V18.2262H135.353V16.7151C135.353 12.7635 135.257 9.99825 135.068 8.41712C134.879 6.83599 134.285 5.37397 133.289 4.03106C132.293 2.68815 130.975 1.67922 129.339 1.00893C127.702 0.33631 125.853 0.00233459 123.798 0.00233459C121.631 0.00233459 119.733 0.35733 118.104 1.06966C116.475 1.78198 115.182 2.80026 114.224 4.12915C113.265 5.45805 112.697 6.9224 112.515 8.52689C112.332 10.1314 112.241 12.8616 112.241 16.7198V18.2309H122.23V18.2262Z" fill="#F8F7F7"/>
<path d="M68.3289 18.2262H81.7141L86.7868 1.17008C86.8406 0.987909 86.705 0.80574 86.5156 0.80574H77.9482C77.815 0.80574 77.6981 0.89916 77.6701 1.02995C76.6205 5.8761 75.8187 10.0963 75.2623 13.6907C75.2132 14.0153 74.7434 14.0083 74.7013 13.6837C74.3413 10.8577 73.6236 6.64214 72.5553 1.03695C72.5296 0.903831 72.4127 0.80574 72.2772 0.80574H63.7098C63.5204 0.80574 63.3848 0.985573 63.4363 1.16774L68.3289 18.2262Z" fill="#F8F7F7"/>
<path d="M53.1412 18.2262C53.3679 16.3578 53.6367 14.2675 53.9476 11.9484C53.9921 11.6121 54.483 11.6237 54.511 11.9624C54.6957 14.1858 54.8804 16.2737 55.065 18.2262H63.7096L61.1522 1.04863C61.1312 0.910837 61.0119 0.808075 60.8717 0.808075H46.9254C46.7828 0.808075 46.6636 0.913172 46.6449 1.0533L44.3657 18.2262H53.1412Z" fill="#F8F7F7"/>
<path d="M87.6328 35.9666V38.9093C87.6328 39.0658 87.759 39.1919 87.9157 39.1919H99.1877C103.206 39.1919 105.864 38.9631 107.161 38.503C108.449 38.0475 109.391 37.1998 109.985 35.9643H87.6328V35.9666Z" fill="#F8F7F7"/>
<path d="M114.303 35.9666C115.298 37.3095 116.617 38.3185 118.253 38.9887C119.89 39.6614 121.736 39.9977 123.793 39.9977C125.96 39.9977 127.859 39.6427 129.488 38.9304C131.077 38.2367 132.344 37.2465 133.296 35.9643H114.3L114.303 35.9666Z" fill="#F8F7F7"/>
<path d="M23.4208 35.9666V38.9093C23.4208 39.0658 23.547 39.1919 23.7036 39.1919H39.1998C39.3564 39.1919 39.4826 39.0658 39.4826 38.9093V35.9666H23.4185H23.4208Z" fill="#F8F7F7"/>
<path d="M138.911 35.9666C139.907 37.3095 141.225 38.3185 142.862 38.9887C144.498 39.6614 146.345 39.9977 148.402 39.9977C150.569 39.9977 152.467 39.6427 154.096 38.9304C155.686 38.2367 156.953 37.2465 157.904 35.9643H138.909L138.911 35.9666Z" fill="#F8F7F7"/>
<path d="M70.3578 35.9666V38.9093C70.3578 39.0658 70.484 39.1919 70.6407 39.1919H79.3273C79.4839 39.1919 79.6101 39.0658 79.6101 38.9093V35.9666H70.3555H70.3578Z" fill="#F8F7F7"/>
<path d="M42.0119 35.9666L41.6262 38.872C41.6028 39.0425 41.7361 39.1919 41.9067 39.1919H51.6499C51.7972 39.1919 51.9188 39.0798 51.9328 38.9327L52.1923 35.9643H42.0119V35.9666Z" fill="#F8F7F7"/>
<path d="M66.3489 35.9666H56.3696L56.6011 38.9327C56.6127 39.0798 56.7366 39.1942 56.8839 39.1942H66.5009C66.6739 39.1942 66.8071 39.0401 66.7814 38.8696L66.3489 35.9689V35.9666Z" fill="#F8F7F7"/>
<path d="M9.991 27.3299H0V30.1302H9.991V27.3299Z" fill="#F8F7F7"/>
<path d="M122.23 18.6933H112.241V22.1942H122.23V18.6933Z" fill="#F8F7F7"/>
<path d="M33.4091 18.6933H23.4204V22.1942H33.4091V18.6933Z" fill="#F8F7F7"/>
<path d="M9.99334 23.0116H0V26.1622H9.99334V23.0116Z" fill="#F8F7F7"/>
<path d="M0 22.1942H13.446C15.2764 22.1031 16.7841 21.7271 17.9763 21.1993C19.2971 20.6131 20.2088 19.777 20.723 18.6933H0V22.1942Z" fill="#F8F7F7"/>
<path d="M146.838 18.2262V10.6709C146.838 8.69504 146.976 7.50627 147.254 7.10223C147.53 6.69819 147.929 6.49734 148.453 6.49734C149.07 6.49734 149.477 6.74724 149.676 7.2447C149.872 7.74216 149.973 8.88422 149.973 10.6709V18.2262H159.961V16.7151C159.961 12.7635 159.865 9.99825 159.676 8.41712C159.487 6.83599 158.893 5.37397 157.897 4.03106C156.901 2.68815 155.583 1.67922 153.947 1.00893C152.31 0.33631 150.461 0.00233459 148.406 0.00233459C146.239 0.00233459 144.341 0.35733 142.712 1.06966C141.083 1.78198 139.79 2.80026 138.831 4.12915C137.873 5.45805 137.305 6.9224 137.123 8.52689C136.94 10.1314 136.849 12.8616 136.849 16.7198V18.2309H146.838V18.2262Z" fill="#F8F7F7"/>
<path d="M69.4671 22.1942H80.5334L81.576 18.6933H68.4619L69.4671 22.1942Z" fill="#F8F7F7"/>
<path d="M55.4601 22.1942H64.301L63.7797 18.6933H55.1118C55.2287 19.9147 55.3456 21.0825 55.4601 22.1942Z" fill="#F8F7F7"/>
<path d="M43.8398 22.1942H52.6901C52.8 21.1362 52.9332 19.9708 53.0851 18.6933H44.305L43.8398 22.1942Z" fill="#F8F7F7"/>
<path d="M183.817 31.6483H173.921L174.524 34.0982H184.558L183.817 31.6483Z" fill="#F8F7F7"/>
<path d="M9.991 31.6483H0V34.0982H9.991V31.6483Z" fill="#F8F7F7"/>
<path d="M179.906 18.2262L185.434 1.17708C185.493 0.994915 185.357 0.80574 185.165 0.80574H176.395C176.268 0.80574 176.158 0.887483 176.123 1.00893L172.29 13.8588C172.196 14.1718 171.733 14.104 171.733 13.7771V1.08834C171.733 0.931857 171.607 0.80574 171.45 0.80574H162.027C161.871 0.80574 161.745 0.931857 161.745 1.08834V18.2239H179.908L179.906 18.2262Z" fill="#F8F7F7"/>
<path d="M171.731 31.6483H161.743V34.0982H171.731V31.6483Z" fill="#F8F7F7"/>
<path d="M79.6126 31.6483H70.3579V34.0982H79.6126V31.6483Z" fill="#F8F7F7"/>
<path d="M39.4846 31.7931C39.4846 31.7394 39.4659 31.6903 39.4378 31.6459H23.4204V34.0959H39.4846V31.7931Z" fill="#F8F7F7"/>
</g>
<defs>
<clipPath id="clip0_91_345">
<rect width="186" height="40" fill="white"/>
</clipPath>
</defs>
</svg>
